<svg width="155" height="56" viewBox="0 0 155 56" fill="none" xmlns="http://www.w3.org/2000/svg">
<path d="M61.6877 19.9626C61.6877 20.2143 61.6244 20.3402 61.561 20.4031C61.4977 20.4661 61.371 20.4661 61.1809 20.4661H57.2533C57.0633 20.4661 56.8732 20.4661 56.8099 20.4031C56.7465 20.3402 56.7465 20.1514 56.7465 19.9626V19.0816H54.4027V22.7315H59.1538C59.4072 22.7315 59.5972 22.7944 59.6606 22.8574C59.7239 22.9203 59.7873 23.1091 59.7873 23.4237V26.696C59.7873 26.9478 59.7239 27.1365 59.6606 27.1995C59.5972 27.2624 59.4072 27.3253 59.1538 27.3253H54.4027V31.164H55.8597C56.1764 31.164 56.3031 31.2269 56.3665 31.2899C56.4298 31.3528 56.4298 31.5416 56.4298 31.8562V35.0656C56.4298 35.3803 56.4298 35.569 56.3665 35.632C56.3031 35.6949 56.1131 35.7578 55.8597 35.7578H47.2443C46.9275 35.7578 46.7375 35.6949 46.6741 35.632C46.6108 35.569 46.5475 35.3803 46.5475 35.0656V31.8562C46.5475 31.5416 46.6108 31.3528 46.6741 31.2899C46.7375 31.2269 46.9275 31.164 47.2443 31.164H48.1945V18.767H47.2443C46.9275 18.767 46.7375 18.704 46.6741 18.6411C46.6108 18.5782 46.5475 18.3894 46.5475 18.1377V14.8654C46.5475 14.6137 46.6108 14.4249 46.6741 14.3619C46.7375 14.299 46.9275 14.2361 47.2443 14.2361H61.1809C61.371 14.2361 61.561 14.2361 61.6244 14.3619C61.6877 14.4249 61.7511 14.5507 61.7511 14.8024V19.9626H61.6877Z" fill="#3F4C5A"/>
<path d="M72.2035 35.0656C72.2035 35.3173 72.1402 35.5061 72.0768 35.569C72.0135 35.6319 71.8235 35.6949 71.5067 35.6949H63.9683C63.6515 35.6949 63.4615 35.6319 63.3981 35.569C63.3348 35.5061 63.2714 35.3173 63.2714 35.0656V32.2967C63.2714 32.045 63.3348 31.8562 63.3981 31.7933C63.4615 31.7303 63.6515 31.6674 63.9683 31.6674H64.8551V21.1583H63.9683C63.6515 21.1583 63.4615 21.0953 63.3981 21.0324C63.3348 20.9695 63.2714 20.7807 63.2714 20.529V17.6972C63.2714 17.4454 63.3348 17.2567 63.3981 17.1937C63.4615 17.1308 63.6515 17.0679 63.9683 17.0679H71.5067C71.8235 17.0679 72.0135 17.1308 72.0768 17.1937C72.1402 17.2567 72.2035 17.4454 72.2035 17.6972V20.529C72.2035 20.7807 72.1402 20.9695 72.0768 21.0324C72.0135 21.0953 71.8235 21.1583 71.5067 21.1583H70.4931V31.7303H71.5067C71.8235 31.7303 72.0135 31.7933 72.0768 31.8562C72.1402 31.9191 72.2035 32.1079 72.2035 32.3596V35.0656Z" fill="#3F4C5A"/>
<path d="M89.4343 23.1091C89.4343 23.3608 89.3709 23.4866 89.3076 23.5496C89.2442 23.6125 89.0542 23.6754 88.8642 23.6754H86.3302C86.0768 23.6754 85.9501 23.6125 85.8868 23.5496C85.8234 23.4866 85.7601 23.2978 85.7601 23.1091V21.6617H84.4298V31.6674H86.0135C86.3302 31.6674 86.5203 31.7303 86.5836 31.7933C86.647 31.8562 86.7103 32.045 86.7103 32.2967V35.0656C86.7103 35.3173 86.7103 35.5061 86.647 35.569C86.5836 35.6319 86.3936 35.6949 86.1402 35.6949H77.018C76.7013 35.6949 76.5746 35.6319 76.5112 35.569C76.4479 35.5061 76.4479 35.3173 76.4479 35.0656V32.2967C76.4479 32.045 76.4479 31.8562 76.5112 31.7933C76.5746 31.7303 76.7646 31.6674 77.018 31.6674H78.6017V21.6617H77.2714V23.1091C77.2714 23.3608 77.2081 23.4866 77.1447 23.5496C77.0814 23.6125 76.8913 23.6754 76.7013 23.6754H74.1673C73.9139 23.6754 73.7872 23.6125 73.7239 23.5496C73.6605 23.4866 73.5972 23.2978 73.5972 23.1091V17.5713C73.5972 17.3196 73.6605 17.1937 73.7239 17.1308C73.8506 17.0679 73.9773 17.0679 74.2307 17.0679H88.8008C89.0542 17.0679 89.1809 17.0679 89.2442 17.1308C89.3076 17.1937 89.3076 17.3196 89.3076 17.5713V23.1091H89.4343Z" fill="#3F4C5A"/>
<path d="M108.882 20.466C108.882 20.7177 108.819 20.9065 108.756 20.9694C108.692 21.0323 108.502 21.0953 108.185 21.0953H107.425V35.0655C107.425 35.3172 107.425 35.506 107.362 35.569C107.299 35.6319 107.109 35.6948 106.855 35.6948H103.561C103.308 35.6948 103.118 35.6319 103.054 35.569C102.991 35.506 102.864 35.3172 102.737 35.1285L98.4298 27.6399C98.3031 27.3882 98.113 27.0735 97.923 26.633C97.7329 26.1925 97.4796 25.752 97.2895 25.1857C97.3529 25.752 97.4162 26.1925 97.4796 26.633C97.5429 27.0106 97.5429 27.514 97.5429 27.9545V35.0026C97.5429 35.3172 97.4795 35.506 97.4162 35.569C97.3529 35.6319 97.1628 35.6948 96.9094 35.6948H91.6515C91.3348 35.6948 91.2081 35.6319 91.1447 35.569C91.0814 35.506 91.0814 35.3172 91.0814 35.0655V32.2966C91.0814 32.0449 91.1447 31.8561 91.2081 31.7932C91.2714 31.7303 91.4615 31.6674 91.7782 31.6674H92.6017V21.0953H91.7782C91.4615 21.0953 91.2714 21.0323 91.2081 20.9694C91.1447 20.9065 91.0814 20.7177 91.0814 20.466V17.6342C91.0814 17.3825 91.1447 17.1937 91.2081 17.1307C91.2714 17.0678 91.4615 17.0049 91.7782 17.0049H96.9094C97.1628 17.0049 97.3529 17.0049 97.4796 17.0678C97.5429 17.1307 97.6696 17.2566 97.7963 17.5083L101.787 24.2417C101.977 24.4934 102.167 24.871 102.357 25.3744C102.547 25.8779 102.737 26.3184 102.928 26.633C102.864 26.1296 102.864 25.6891 102.801 25.1857C102.737 24.6822 102.674 24.3047 102.674 23.9271V17.6342C102.674 17.3825 102.737 17.1937 102.801 17.1307C102.864 17.0678 103.054 17.0049 103.371 17.0049H108.566C108.882 17.0049 109.072 17.0678 109.136 17.1307C109.199 17.1937 109.262 17.3825 109.262 17.6342V20.466H108.882Z" fill="#3F4C5A"/>
<path d="M124.339 35.1914C124.339 35.4431 124.276 35.569 124.213 35.6319C124.149 35.6948 123.959 35.6948 123.769 35.6948H111.163C110.846 35.6948 110.656 35.6319 110.593 35.569C110.529 35.506 110.466 35.3172 110.466 35.0655V32.2966C110.466 32.0449 110.529 31.8561 110.593 31.7932C110.656 31.7303 110.846 31.6674 111.163 31.6674H111.986V21.0953H111.163C110.846 21.0953 110.656 21.0323 110.593 20.9694C110.529 20.9065 110.466 20.7177 110.466 20.466V17.6342C110.466 17.3825 110.529 17.1937 110.593 17.1307C110.656 17.0678 110.846 17.0049 111.163 17.0049H123.706C123.896 17.0049 124.086 17.0049 124.149 17.0678C124.213 17.1307 124.276 17.2566 124.276 17.5083V21.9763C124.276 22.228 124.213 22.3539 124.149 22.4168C124.086 22.4797 123.896 22.4797 123.706 22.4797H120.348C120.158 22.4797 119.968 22.4797 119.905 22.4168C119.842 22.3539 119.778 22.228 119.778 21.9763V21.2841H117.688V23.99H121.932C122.185 23.99 122.376 24.0529 122.439 24.1159C122.502 24.1788 122.566 24.3676 122.566 24.6822V27.514C122.566 27.7658 122.502 27.9545 122.439 28.0175C122.376 28.0804 122.185 28.0804 121.932 28.0804H117.688V31.2898H119.842V30.5346C119.842 30.2829 119.905 30.1571 119.968 30.0941C120.032 30.0312 120.158 29.9683 120.412 29.9683H123.833C124.023 29.9683 124.213 30.0312 124.276 30.0941C124.339 30.1571 124.403 30.3458 124.403 30.5346V35.1914H124.339Z" fill="#3F4C5A"/>
<path d="M134.728 21.1581C134.348 21.0323 133.842 20.9694 133.271 20.9694C132.575 20.9694 132.131 21.0952 131.878 21.284C131.624 21.5357 131.498 21.7874 131.498 22.0392C131.498 22.4167 131.624 22.6684 131.941 22.9202C132.258 23.109 132.828 23.4236 133.588 23.8012C134.095 24.0529 134.602 24.2417 135.045 24.4305C135.489 24.6192 135.995 24.871 136.375 25.0597C136.882 25.3115 137.326 25.6261 137.706 25.9408C138.086 26.2554 138.466 26.57 138.719 26.9476C138.973 27.3252 139.226 27.7657 139.353 28.2691C139.48 28.7726 139.606 29.3389 139.606 30.0311C139.606 30.9122 139.416 31.7302 139.099 32.4854C138.783 33.2405 138.276 33.8698 137.642 34.3732C137.009 34.8767 136.249 35.3172 135.425 35.5689C134.538 35.8206 133.588 36.0094 132.511 36.0094C132.068 36.0094 131.561 35.9465 130.991 35.8835C130.421 35.8206 129.914 35.6948 129.344 35.5689C128.774 35.443 128.267 35.2543 127.76 35.0025C127.253 34.8138 126.747 34.4991 126.366 34.2474C126.176 34.1215 126.05 33.9957 126.05 33.9327C126.05 33.8698 125.986 33.681 125.986 33.5552V30.0311C125.986 29.7794 126.05 29.6536 126.113 29.5906C126.176 29.5277 126.366 29.5277 126.557 29.5277H129.851C130.104 29.5277 130.231 29.5277 130.294 29.5906C130.357 29.6536 130.421 29.7794 130.421 30.0311V31.2897C130.611 31.3527 130.864 31.4156 131.244 31.5414C131.624 31.6673 132.068 31.6673 132.448 31.6673C133.018 31.6673 133.461 31.5414 133.778 31.2897C134.032 31.038 134.222 30.7234 134.222 30.2829C134.222 30.0311 134.158 29.7794 134.095 29.5906C134.032 29.4019 133.842 29.2131 133.588 29.0243C133.335 28.8355 132.955 28.6467 132.511 28.4579C132.068 28.2691 131.498 28.0174 130.738 27.7028C130.294 27.514 129.914 27.3252 129.471 27.1364C129.09 26.9476 128.647 26.7588 128.267 26.5071C127.507 26.0037 126.937 25.4373 126.493 24.808C126.05 24.1787 125.86 23.2977 125.86 22.2909C125.86 21.4099 126.05 20.6547 126.366 19.9625C126.683 19.2703 127.19 18.7039 127.823 18.2005C128.457 17.6971 129.217 17.3195 130.041 17.0678C130.928 16.816 131.878 16.6902 132.955 16.6902C133.335 16.6902 133.715 16.6902 134.222 16.7531C134.728 16.816 135.235 16.9419 135.805 17.0678C136.312 17.1936 136.882 17.3824 137.389 17.5712C137.896 17.76 138.339 18.0117 138.719 18.2634C138.909 18.3893 138.973 18.4522 138.973 18.5151C138.973 18.5781 138.973 18.7039 138.973 18.8927V22.1021C138.973 22.3538 138.909 22.4797 138.846 22.5426C138.783 22.6055 138.593 22.6684 138.403 22.6684H135.299C135.045 22.6684 134.918 22.6055 134.855 22.5426C134.792 22.4797 134.728 22.2909 134.728 22.1021V21.1581Z" fill="#3F4C5A"/>
<path d="M149.995 21.1581C149.615 21.0323 149.108 20.9694 148.538 20.9694C147.842 20.9694 147.398 21.0952 147.145 21.284C146.891 21.5357 146.765 21.7874 146.765 22.0392C146.765 22.4167 146.891 22.6684 147.208 22.9202C147.525 23.109 148.095 23.4236 148.855 23.8012C149.362 24.0529 149.869 24.2417 150.312 24.4305C150.756 24.6192 151.262 24.871 151.642 25.0597C152.149 25.3115 152.593 25.6261 152.973 25.9408C153.353 26.2554 153.733 26.57 153.986 26.9476C154.24 27.3252 154.493 27.7657 154.62 28.2691C154.747 28.7726 154.873 29.3389 154.873 30.0311C154.873 30.9122 154.683 31.7302 154.366 32.4854C154.05 33.2405 153.543 33.8698 152.909 34.3732C152.276 34.8767 151.516 35.3172 150.692 35.5689C149.805 35.8206 148.855 36.0094 147.778 36.0094C147.335 36.0094 146.828 35.9465 146.258 35.8835C145.688 35.8206 145.181 35.6948 144.611 35.5689C144.041 35.443 143.534 35.2543 143.027 35.0025C142.52 34.8138 142.013 34.4991 141.633 34.2474C141.443 34.1215 141.317 33.9957 141.317 33.9327C141.317 33.8698 141.253 33.681 141.253 33.5552V30.0311C141.253 29.7794 141.317 29.6536 141.38 29.5906C141.443 29.5277 141.633 29.5277 141.823 29.5277H145.118C145.371 29.5277 145.498 29.5277 145.561 29.5906C145.624 29.6536 145.688 29.7794 145.688 30.0311V31.2897C145.878 31.3527 146.131 31.4156 146.511 31.5414C146.891 31.6673 147.335 31.6673 147.715 31.6673C148.285 31.6673 148.728 31.5414 149.045 31.2897C149.299 31.038 149.489 30.7234 149.489 30.2829C149.489 30.0311 149.425 29.7794 149.362 29.5906C149.299 29.4019 149.108 29.2131 148.855 29.0243C148.602 28.8355 148.222 28.6467 147.778 28.4579C147.335 28.2691 146.765 28.0174 146.004 27.7028C145.561 27.514 145.181 27.3252 144.737 27.1364C144.357 26.9476 143.914 26.7588 143.534 26.5071C142.774 26.0037 142.204 25.4373 141.76 24.808C141.317 24.1787 141.127 23.2977 141.127 22.2909C141.127 21.4099 141.317 20.6547 141.633 19.9625C141.95 19.2703 142.457 18.7039 143.09 18.2005C143.724 17.6971 144.484 17.3195 145.308 17.0678C146.194 16.816 147.145 16.6902 148.222 16.6902C148.602 16.6902 148.982 16.6902 149.489 16.7531C149.995 16.816 150.502 16.9419 151.072 17.0678C151.579 17.1936 152.149 17.3824 152.656 17.5712C153.163 17.76 153.606 18.0117 153.986 18.2634C154.176 18.3893 154.24 18.4522 154.24 18.5151C154.24 18.5781 154.24 18.7039 154.24 18.8927V22.1021C154.24 22.3538 154.176 22.4797 154.113 22.5426C154.05 22.6055 153.86 22.6684 153.67 22.6684H150.312C150.059 22.6684 149.932 22.6055 149.869 22.5426C149.805 22.4797 149.742 22.2909 149.742 22.1021V21.1581H149.995Z" fill="#3F4C5A"/>
<path d="M66.6923 55.6432C66.0588 55.6432 65.4887 55.5173 65.1086 55.3286C64.7285 55.1398 64.3484 54.8251 64.095 54.3846C63.905 54.07 63.8416 53.8183 63.905 53.5036C63.9683 53.2519 64.0317 53.0002 64.1584 52.8114C64.2851 52.6226 64.4751 52.4338 64.6651 52.308C64.8552 52.1821 65.1086 52.0562 65.2986 52.0562H65.4887L65.552 52.1821C65.6154 52.308 65.6787 52.5597 65.6787 52.8114C65.6787 53.0002 65.6787 53.126 65.7421 53.3148C65.8054 53.4407 65.8688 53.5665 65.9321 53.6924C66.0588 53.7553 66.2489 53.8183 66.5023 53.8183C66.7556 53.8183 67.009 53.6924 67.3258 53.4407C67.6425 53.189 67.9593 52.7485 68.3394 52.1821C68.7194 51.5528 69.0995 50.7977 69.4796 49.9167C69.6697 49.5391 69.8597 49.0986 70.0498 48.5951C69.733 48.8469 69.4163 49.0986 69.0995 49.3503C68.5928 49.7279 68.086 49.9796 67.5792 50.1684C67.0724 50.3572 66.5656 50.483 66.1222 50.483C65.8054 50.483 65.4887 50.4201 65.1719 50.2313C64.8552 50.0425 64.6651 49.8537 64.4751 49.5391C64.3484 49.3503 64.2851 49.1615 64.2217 48.9098C63.8416 49.2244 63.4615 49.4762 63.0814 49.7279C62.1312 50.2313 61.2443 50.483 60.3575 50.483C60.2941 50.483 60.2308 50.483 60.1674 50.483C59.3439 50.483 58.5837 50.2313 58.0136 49.9167C57.3801 49.5391 56.8733 49.0986 56.4932 48.5322C56.1131 47.9659 55.7964 47.3366 55.543 46.5814C55.4163 46.2038 55.3529 45.8263 55.2896 45.3858C54.9095 46.1409 54.4661 46.8961 54.1493 47.5883C53.6425 48.5322 53.2624 49.3503 52.9457 50.0425V50.2942H47.371L47.4977 49.8537C48.3213 47.6512 49.0814 45.4487 49.905 43.2462C50.6651 41.1066 51.4253 38.8411 52.1855 36.5757C52.2489 36.4498 52.3122 36.1352 52.1855 36.0093C52.1222 36.0093 52.1222 35.9464 52.0588 35.9464C51.9955 35.9464 51.9321 35.9464 51.7421 36.0723C50.9185 36.5757 50.2217 37.205 49.7149 37.8972C49.2081 38.5894 48.7013 39.3446 48.2579 40.0997L48.1312 40.2885L47.9412 40.2256C47.6878 40.1627 47.371 40.0368 47.1176 39.848C46.8642 39.6592 46.7375 39.4075 46.5475 39.1558C46.4208 38.9041 46.3575 38.6524 46.2941 38.4006C46.2308 38.086 46.2941 37.8343 46.4208 37.6455C46.8009 37.0791 47.3077 36.5757 47.8778 36.0723C48.448 35.5688 49.1448 35.1283 49.8416 34.8137C50.5385 34.4361 51.2986 34.1215 52.0588 33.9327C52.819 33.681 53.5158 33.618 54.2127 33.618C55.4163 33.618 56.2398 33.9327 56.6199 34.562C57 35.1913 57.0633 35.8835 56.8099 36.7645C56.4299 38.086 55.9231 39.4704 55.3529 40.9178C55.2262 41.2324 55.0995 41.5471 54.9728 41.8617C55.2896 41.2954 55.6063 40.729 55.9864 40.0997C56.5566 39.1558 57.1267 38.1489 57.7602 37.205C58.3937 36.261 59.0905 35.3171 59.7873 34.562C60.4842 33.7439 61.2443 33.1146 62.0679 32.6112C62.7647 32.1707 63.5249 31.9189 64.2851 31.9189C64.3484 31.9189 64.4751 31.9189 64.5385 31.9189C65.1719 31.9819 65.8054 32.1707 66.3756 32.5482C66.9457 32.9258 67.2624 33.5551 67.3258 34.4361C67.3891 35.3171 67.1357 36.0723 66.6923 36.8274C66.2489 37.5196 65.7421 38.086 65.1086 38.4636C64.8552 38.6524 64.6018 38.7153 64.1584 38.7782C64.0317 38.7782 63.905 38.7782 63.7149 38.7782C63.4615 38.7782 63.2715 38.7782 63.0181 38.7153C62.638 38.6524 62.2579 38.5894 61.8778 38.4636C61.4977 38.3377 61.181 38.1489 60.9909 37.8972V37.4567L61.4344 37.3308C61.8145 37.205 62.1946 37.0162 62.5746 36.7645C62.9547 36.5128 63.2715 36.261 63.5882 35.9464C63.905 35.6318 64.1584 35.3171 64.3484 35.0025C64.5385 34.6878 64.6651 34.3732 64.7918 34.0585C64.8552 33.8697 64.8552 33.681 64.8552 33.5551C64.8552 33.5551 64.8552 33.4922 64.7918 33.4922H64.7285C64.4118 33.4922 64.0317 33.618 63.6516 33.9327C63.1448 34.3103 62.638 34.7508 62.0679 35.38C61.4977 36.0093 60.9276 36.7645 60.2941 37.5826C59.724 38.4006 59.0905 39.2816 58.5204 40.2256C58.5204 40.6032 58.5204 41.0437 58.647 41.5471C58.7104 42.1135 58.9004 42.6798 59.0271 43.372C59.2172 44.0013 59.4072 44.6306 59.5973 45.2599C59.8507 45.8892 60.0407 46.4556 60.2941 46.959C60.5475 47.4624 60.8009 47.84 61.0543 48.1546C61.3077 48.4064 61.4977 48.5322 61.6878 48.5951H61.7511C62.0045 48.5951 62.2579 48.5322 62.5113 48.4064C62.828 48.2176 63.1448 48.0288 63.3982 47.7141C63.7149 47.4624 63.9683 47.0848 64.2217 46.7073C64.4751 46.3297 64.7285 45.9521 64.9185 45.5116V45.4487L67.009 39.4704H71.1267L67.9593 47.7141C67.8959 47.9029 67.8326 48.0917 67.8959 48.2805C68.086 48.2176 68.276 48.1546 68.6561 47.7771C69.0362 47.3995 69.4796 46.959 69.8597 46.4556C70.2398 45.9521 70.6199 45.4487 70.9366 44.9453C71.2534 44.4418 71.4434 44.0643 71.5701 43.8755L73.3439 39.4075H77.2081L74.9276 45.8892L76.9547 45.3228V45.7004C76.9547 45.8263 76.9547 46.078 76.8914 46.3926C76.8914 46.7073 76.8914 46.959 76.8914 47.2736C76.8914 47.5254 76.9547 47.7771 77.0814 48.0288C77.1448 48.1546 77.2081 48.2176 77.3348 48.2176C77.3348 48.2176 77.4615 48.2176 77.5882 48.0917C77.7149 47.9659 77.905 47.7771 78.095 47.5883C78.2851 47.3366 78.4751 47.1478 78.6651 46.8331C78.7918 46.5814 78.9819 46.3926 79.1086 46.1409C78.7285 45.197 78.4118 44.1272 78.1584 43.1203C77.8416 42.0505 77.6516 40.9178 77.5249 39.7851L77.4615 39.4075H81.4525V39.7221C81.4525 39.9739 81.5158 40.2256 81.5792 40.6032C81.6425 40.9807 81.7059 41.2954 81.8326 41.6729C81.8959 42.0505 82.0226 42.3652 82.086 42.6798C82.086 42.7427 82.1493 42.8057 82.1493 42.8686L85.19 38.967L85.4434 39.0929C85.9502 39.4075 86.5204 39.5963 87.0905 39.6592C87.2805 39.6592 87.5339 39.7221 87.724 39.7221C88.1041 39.7221 88.5475 39.6592 88.9909 39.5963L89.5611 39.4704L89.371 40.0368C89.181 40.4773 88.9276 40.9178 88.6742 41.2954C88.3575 41.6729 88.0407 41.9876 87.5973 42.2393C87.1538 42.491 86.7104 42.554 86.2036 42.6169C85.7602 42.6169 85.3167 42.491 84.8733 42.3022L82.7828 44.8823C82.8461 45.0711 82.9728 45.3228 83.0362 45.6375C83.1629 46.0151 83.3529 46.3926 83.543 46.7702C83.733 47.1478 83.9231 47.4624 84.1765 47.7141C84.3665 47.9029 84.5566 47.9659 84.7466 47.9659C85.1267 47.9659 85.3801 47.84 85.6968 47.6512C86.0136 47.4624 86.3303 47.1478 86.647 46.8331C86.9638 46.5185 87.2172 46.1409 87.4706 45.7633C87.724 45.3858 87.914 45.0082 88.1041 44.6935L88.2941 44.3789L88.4208 44.4418L90.1312 39.4704H94.5023L93.1086 43.5608H95.1357L96.4027 39.4704H100.837L98.2398 48.0288C98.1765 48.2805 98.1765 48.3434 98.1765 48.3434C98.1765 48.3434 98.1765 48.3434 98.2398 48.3434C98.4932 48.3434 99 48.2176 99.7602 47.5883C99.7602 47.3366 99.7602 47.0849 99.7602 46.8331C99.8235 46.2038 100.14 45.5746 100.71 45.0711C100.9 44.8823 101.154 44.7565 101.471 44.6306C101.787 44.5677 102.104 44.5048 102.421 44.5048C102.738 44.5048 103.054 44.5048 103.434 44.5677C103.751 44.6306 104.068 44.6935 104.385 44.7565L105.398 45.0711L104.385 45.3858C104.258 45.4487 104.131 45.5116 103.941 45.7004C103.751 45.8892 103.624 46.078 103.498 46.3297C103.371 46.5814 103.308 46.8331 103.181 47.1478C103.118 47.3995 103.118 47.6512 103.118 47.84C103.118 47.9659 103.181 48.0917 103.244 48.2176C103.244 48.2805 103.371 48.2805 103.371 48.2805C103.434 48.2805 103.498 48.2805 103.561 48.2805C104.068 48.1546 104.511 47.9659 104.891 47.7141C105.271 47.4624 105.652 47.0848 106.032 46.7073C106.412 46.3297 106.729 45.8892 106.982 45.4487C107.109 45.2599 107.235 45.0082 107.362 44.8194C107.362 44.8194 107.362 44.8194 107.299 44.8194C106.792 45.0082 106.285 45.0711 105.842 45.0711C105.588 45.0711 105.335 45.0711 105.145 45.0082C104.511 44.8823 104.005 44.5677 103.624 44.0643C103.244 43.6238 102.991 43.0574 102.928 42.4281C102.801 41.7988 102.864 41.1695 102.991 40.4773C103.118 39.848 103.434 39.1558 103.878 38.5265C104.321 37.8972 104.891 37.3938 105.588 36.9533C106.538 36.3869 107.425 36.0093 108.186 35.9464C108.376 35.9464 108.502 35.9464 108.692 35.9464C109.262 35.9464 109.769 36.0723 110.149 36.261C110.719 36.5757 111.1 37.0162 111.353 37.5826C111.606 38.1489 111.67 38.8411 111.606 39.5334C111.543 39.9109 111.48 40.3514 111.353 40.9178C111.226 41.2954 111.163 41.61 111.036 41.9876H114.457L112.303 47.7771C112.24 47.9659 112.176 48.1546 112.24 48.2805C112.303 48.2805 112.367 48.2805 112.557 48.2176C112.747 48.1546 113 47.9659 113.317 47.7771C113.633 47.5254 113.95 47.2736 114.267 46.959C114.584 46.7073 114.9 46.3926 115.154 46.1409C115.407 45.8892 115.597 45.7004 115.661 45.5746L115.787 45.3858L115.977 45.5116C116.231 45.6375 116.484 45.8263 116.611 46.1409C116.801 46.4556 116.738 46.8331 116.548 47.0849C116.041 47.6512 115.534 48.1546 115.09 48.5951C114.647 49.0356 114.204 49.3503 113.697 49.6649C113.253 49.9167 112.747 50.1684 112.24 50.2942C111.733 50.4201 111.163 50.483 110.529 50.483C109.706 50.483 109.136 50.2942 108.692 49.8537C108.249 49.4132 108.059 48.8469 108.059 48.0288C108.059 47.7771 108.122 47.5254 108.186 47.2107C107.742 47.7771 107.299 48.2805 106.855 48.6581C106.285 49.2244 105.652 49.602 105.018 49.9167C104.321 50.2313 103.624 50.4201 102.928 50.4201H102.801C102.231 50.4201 101.661 50.2313 101.154 49.9167C100.837 49.7279 100.584 49.5391 100.394 49.2874C100.267 49.4132 100.077 49.5391 99.9502 49.602C99 50.2313 97.9231 50.5459 96.6561 50.5459C96.1493 50.5459 95.7059 50.483 95.2624 50.2942C94.819 50.1054 94.5023 49.8537 94.2489 49.4762C93.9955 49.0986 93.8688 48.721 93.8688 48.2176C93.8688 47.7141 93.9321 47.2107 94.1222 46.5814L94.4389 45.5116H92.2217L90.5746 50.2942H86.267L86.5204 49.4762C86.2036 49.7279 85.8235 49.9167 85.4434 50.1054C84.8733 50.3572 84.2398 50.483 83.543 50.483C82.8461 50.483 82.086 50.1684 81.4525 49.602C80.8823 49.1615 80.4389 48.5951 80.1222 47.9659C79.9955 48.0917 79.8688 48.2805 79.7421 48.4693C79.4887 48.7839 79.1719 49.0986 78.8552 49.3503C78.5385 49.6649 78.2217 49.9167 77.8416 50.1054C77.4615 50.3572 77.0814 50.4201 76.638 50.4201C76.1312 50.4201 75.6878 50.2942 75.371 49.9796C74.9909 49.7279 74.7375 49.3503 74.4842 48.9727C74.3575 48.721 74.2308 48.4693 74.1674 48.2176L74.0407 48.5322C73.724 49.4762 73.3439 50.3572 72.9004 51.1752C72.457 51.9933 71.9502 52.7485 71.3801 53.4407C70.8099 54.07 70.1131 54.6363 69.3529 55.0139C68.5294 55.4544 67.6425 55.6432 66.6923 55.6432ZM108.566 37.9601C108.502 37.9601 108.439 37.9601 108.312 37.9601C108.122 38.0231 107.869 38.1489 107.679 38.3377C107.235 38.7153 106.919 39.1558 106.665 39.7221C106.412 40.2885 106.222 40.8549 106.222 41.4212C106.158 41.9247 106.285 42.3022 106.475 42.6169C106.538 42.7427 106.665 42.8686 106.982 42.8686C107.109 42.8686 107.299 42.8686 107.489 42.8057C107.615 42.7427 107.805 42.7427 107.932 42.6798C108.059 42.6169 108.249 42.554 108.376 42.491C108.566 41.9876 108.819 41.4842 108.946 41.0437C109.136 40.5402 109.262 40.0997 109.262 39.6592C109.326 39.2816 109.262 38.9041 109.199 38.5894C109.136 38.3377 108.946 38.1489 108.756 38.086C108.756 37.9601 108.629 37.9601 108.566 37.9601Z" fill="#92B676"/>
<path d="M64.4751 32.1706C64.5385 32.1706 64.6652 32.1706 64.7285 32.1706C65.362 32.2335 65.8688 32.4223 66.3756 32.7369C66.8823 33.1145 67.1357 33.6179 67.1991 34.3731C67.2624 35.1911 67.0724 35.8834 66.629 36.5756C66.2489 37.2049 65.7421 37.7083 65.1086 38.0859C64.9185 38.2117 64.6652 38.2747 64.2851 38.3376C64.1584 38.3376 64.0317 38.3376 63.905 38.3376C63.7149 38.3376 63.4615 38.3376 63.2081 38.2747C62.828 38.2117 62.5113 38.1488 62.1312 38.023C61.8145 37.8971 61.5611 37.7083 61.371 37.5195C61.8145 37.3937 62.1946 37.1419 62.5747 36.8902C62.9547 36.6385 63.3348 36.3239 63.6516 36.0092C63.9683 35.6946 64.2217 35.3799 64.4751 35.0024C64.6651 34.6248 64.8552 34.3101 64.9185 33.9955C64.9819 33.7438 64.9819 33.4921 64.9819 33.3033C64.9185 33.1145 64.7918 33.0516 64.6018 32.9886C64.5385 32.9886 64.5385 32.9886 64.4751 32.9886C64.095 32.9886 63.6516 33.1774 63.2081 33.4921C62.7013 33.8696 62.1312 34.3731 61.5611 35.0024C60.9909 35.6316 60.4208 36.3868 59.7873 37.2678C59.1538 38.1488 58.5837 39.0298 58.0136 39.9738C58.0136 40.3513 58.0136 40.8548 58.1403 41.4211C58.2036 41.9875 58.3937 42.6168 58.5204 43.2461C58.7104 43.8754 58.9004 44.5676 59.0905 45.1969C59.3439 45.8262 59.5339 46.3925 59.8507 46.9589C60.1041 47.4623 60.4208 47.9028 60.6742 48.2175C60.9276 48.5321 61.2443 48.7209 61.4977 48.7209C61.5611 48.7209 61.5611 48.7209 61.6244 48.7209C61.9412 48.7209 62.2579 48.658 62.5747 48.4692C62.8914 48.2804 63.2715 48.0287 63.5249 47.777C63.8416 47.4623 64.095 47.1477 64.4118 46.7072C64.6652 46.3296 64.9185 45.8891 65.1086 45.5115L67.1991 39.6591H70.6199L67.6425 47.5252C67.5792 47.777 67.5158 48.0287 67.5158 48.2175C67.5158 48.4062 67.6425 48.5321 67.7059 48.5321C68.0226 48.5321 68.3394 48.3433 68.7828 47.9657C69.2262 47.5882 69.6063 47.1477 69.9864 46.6442C70.3665 46.1408 70.7466 45.6374 71.0633 45.1339C71.3801 44.6305 71.6335 44.2529 71.6968 44.0012L73.4072 39.722H76.5747L74.2308 46.3296L76.448 45.7632C76.448 45.8891 76.448 46.1408 76.3846 46.4554C76.3846 46.7701 76.3846 47.0847 76.3846 47.3994C76.3846 47.714 76.448 47.9657 76.5747 48.2175C76.7014 48.4692 76.828 48.595 77.0814 48.595C77.2081 48.595 77.3348 48.5321 77.5249 48.3433C77.7149 48.2175 77.8416 48.0287 78.0317 47.777C78.2217 47.5252 78.4118 47.2735 78.6018 47.0218C78.7918 46.7701 78.9819 46.4554 79.1719 46.2037C78.7918 45.1969 78.4751 44.1271 78.1584 43.0573C77.905 41.9875 77.6516 40.8548 77.5249 39.785H80.8823C80.8823 40.0367 80.9457 40.3513 81.009 40.666C81.0724 41.0435 81.1357 41.3582 81.2624 41.7358C81.3258 42.1133 81.4525 42.428 81.5158 42.7426C81.5792 43.0573 81.7059 43.309 81.7692 43.4978L85 39.3445C85.5701 39.6591 86.1403 39.8479 86.7737 39.9738C87.0271 40.0367 87.2172 40.0367 87.4706 40.0367C87.914 40.0367 88.3575 39.9738 88.8009 39.8479C88.6109 40.2884 88.4208 40.666 88.1674 41.0435C87.914 41.4211 87.5973 41.6728 87.2172 41.8616C86.8371 42.0504 86.457 42.1763 86.0136 42.1763C86.0136 42.1763 86.0136 42.1763 85.9502 42.1763C85.5068 42.1763 85.0633 42.0504 84.5565 41.7987L82.2127 44.6934C82.276 44.9451 82.4027 45.2598 82.5294 45.6374C82.6561 46.0149 82.8461 46.4554 83.0362 46.833C83.2262 47.2106 83.4796 47.5252 83.733 47.8399C83.9864 48.0916 84.2398 48.2175 84.5565 48.2175H84.6199C85 48.2175 85.3167 48.0916 85.6968 47.8399C86.0769 47.5882 86.3937 47.3365 86.7104 46.9589C87.0271 46.5813 87.2805 46.2667 87.5339 45.8262C87.7873 45.4486 87.9774 45.071 88.1674 44.7564C88.2308 44.7564 88.2308 44.8193 88.2941 44.8822L90.0679 39.722H93.7421L92.3484 43.8124H95.0724L96.3394 39.722H100.14L97.6697 47.9028C97.543 48.1545 97.543 48.3433 97.6697 48.4692C97.733 48.595 97.8597 48.658 97.9864 48.658C98.4932 48.658 99.0633 48.3433 99.8235 47.714C99.7602 47.4623 99.7602 47.1477 99.8235 46.8959C99.8869 46.3296 100.14 45.8262 100.647 45.2598C100.774 45.1339 101.027 45.0081 101.281 44.9451C101.534 44.8822 101.851 44.8193 102.167 44.8193C102.484 44.8193 102.801 44.8193 103.118 44.8822C103.434 44.9452 103.751 44.9451 104.005 45.071C103.814 45.1339 103.624 45.2598 103.434 45.4486C103.244 45.6374 103.054 45.8891 102.928 46.1408C102.801 46.3925 102.674 46.7072 102.611 46.9589C102.547 47.2735 102.484 47.5252 102.548 47.714C102.611 47.9028 102.611 48.0916 102.738 48.2804C102.801 48.3433 102.928 48.4062 103.118 48.4062C103.181 48.4062 103.244 48.4062 103.371 48.4062C103.878 48.2804 104.385 48.0916 104.828 47.777C105.271 47.4623 105.652 47.1477 106.032 46.7072C106.412 46.3296 106.728 45.8891 107.045 45.3857C107.362 44.8822 107.615 44.4417 107.869 44.0012C107.742 44.0641 107.552 44.1271 107.425 44.19C107.299 44.2529 107.172 44.2529 107.045 44.3159C106.538 44.5046 106.095 44.5676 105.715 44.5676C105.525 44.5676 105.271 44.5676 105.081 44.5046C104.511 44.3788 104.068 44.0641 103.751 43.6866C103.434 43.309 103.181 42.8056 103.118 42.1763C102.991 41.6099 103.054 40.9806 103.181 40.3513C103.308 39.722 103.624 39.1557 104.005 38.5264C104.385 37.96 104.955 37.4566 105.652 37.0161C106.538 36.4497 107.362 36.1351 108.122 36.0722C108.312 36.0722 108.439 36.0722 108.629 36.0722C109.136 36.0722 109.579 36.198 109.959 36.3868C110.466 36.6385 110.783 37.0161 111.036 37.5825C111.29 38.1488 111.353 38.7152 111.29 39.4074C111.226 39.785 111.163 40.2255 111.036 40.7289C110.909 41.2323 110.719 41.7358 110.529 42.1763H113.95L111.923 47.5252C111.796 47.8399 111.796 48.0916 111.923 48.2804C111.986 48.4062 112.05 48.4692 112.24 48.4692C112.367 48.4692 112.493 48.4062 112.62 48.3433C112.873 48.2804 113.127 48.0916 113.443 47.8399C113.76 47.5882 114.077 47.2735 114.457 47.0218C114.774 46.7072 115.09 46.4554 115.344 46.2037C115.597 45.952 115.787 45.7632 115.914 45.6374C116.104 45.7003 116.294 45.8891 116.421 46.0779C116.547 46.2667 116.484 46.5184 116.357 46.7072C115.851 47.2735 115.344 47.777 114.964 48.1545C114.52 48.5321 114.077 48.9097 113.633 49.1614C113.19 49.4131 112.747 49.6019 112.24 49.7278C111.733 49.8536 111.226 49.9165 110.593 49.9165C109.896 49.9165 109.326 49.7278 108.946 49.4131C108.566 49.0355 108.376 48.5321 108.439 47.8399C108.439 47.4623 108.566 46.896 108.819 46.2037C109.072 45.5115 109.326 44.8193 109.643 44.1271C109.199 44.9451 108.756 45.7003 108.312 46.3925C107.805 47.0847 107.299 47.714 106.728 48.2175C106.158 48.7209 105.588 49.1614 104.955 49.4131C104.321 49.7278 103.688 49.8536 102.991 49.9165C102.928 49.9165 102.928 49.9165 102.864 49.9165C102.357 49.9165 101.851 49.7907 101.407 49.476C101.027 49.2243 100.774 48.9726 100.52 48.658C100.267 48.8468 100.077 49.0355 99.8235 49.1614C98.9366 49.7278 97.9231 50.0424 96.7194 50.0424C96.276 50.0424 95.8326 49.9795 95.4525 49.7907C95.0724 49.6019 94.819 49.4131 94.629 49.0985C94.4389 48.7838 94.3122 48.4062 94.2489 47.9657C94.2489 47.5252 94.3122 47.0218 94.5023 46.4554L94.9457 44.9451H92.2217L90.5746 49.7278H86.9004L87.4706 48.1545C87.2805 48.3433 87.1538 48.5321 86.9638 48.658C86.5204 49.0355 86.0769 49.3502 85.5701 49.6019C85.0633 49.8536 84.4299 49.9795 83.7964 49.9795C83.1629 49.9795 82.5294 49.7278 81.8959 49.1614C81.2624 48.658 80.7556 47.9657 80.3756 47.1477C80.1855 47.3994 79.9321 47.714 79.6787 48.0287C79.4253 48.3433 79.1086 48.658 78.8552 48.9097C78.5385 49.1614 78.2217 49.4131 77.905 49.6019C77.5882 49.7907 77.2081 49.9165 76.8914 49.9165C76.448 49.9165 76.1312 49.7907 75.8145 49.539C75.4977 49.2873 75.2443 48.9726 75.0543 48.658C74.8642 48.2804 74.7375 47.9028 74.6108 47.4623C74.5475 47.2735 74.5475 47.0847 74.5475 46.833L74.0407 48.2175C73.724 49.1614 73.3439 50.0424 72.9004 50.8605C72.457 51.6786 71.9502 52.4337 71.3801 53.063C70.8099 53.6923 70.1765 54.1957 69.4163 54.5733C68.6561 54.9509 67.8959 55.1397 67.009 55.1397C66.3756 55.1397 65.9321 55.0767 65.552 54.8879C65.1719 54.6992 64.9185 54.4474 64.6652 54.0699C64.5385 53.8181 64.4751 53.6294 64.5385 53.3776C64.5385 53.1889 64.6652 52.9371 64.7285 52.8113C64.8552 52.6225 64.9819 52.4966 65.1719 52.3708C65.362 52.2449 65.4887 52.182 65.6154 52.182C65.6787 52.2449 65.6787 52.4337 65.6787 52.6225C65.6787 52.8113 65.6787 53.0001 65.7421 53.1889C65.8054 53.3776 65.8688 53.5664 66.0588 53.6923C66.2489 53.8181 66.5023 53.944 66.8823 53.944C67.1991 53.944 67.5792 53.8181 67.8959 53.5035C68.2127 53.2518 68.5928 52.7484 68.9728 52.182C69.3529 51.5527 69.733 50.7975 70.1765 49.8536C70.6199 48.9097 71.0633 47.777 71.5701 46.5184C71.3801 46.9589 71.0633 47.3994 70.6833 47.777C70.3032 48.2175 69.8597 48.595 69.3529 48.9097C68.9095 49.2243 68.4027 49.539 67.8959 49.7278C67.3891 49.9165 66.9457 50.0424 66.5023 50.0424C66.2489 50.0424 65.9321 49.9795 65.6787 49.8536C65.4253 49.7278 65.2353 49.539 65.1086 49.2873C64.9819 49.0355 64.8552 48.7209 64.8552 48.3433C64.8552 48.2804 64.8552 48.2175 64.8552 48.1545C64.4118 48.658 63.905 49.0985 63.3348 49.3502C62.448 49.8536 61.5611 50.0424 60.7376 50.0424C60.6742 50.0424 60.6109 50.0424 60.5475 50.0424C59.7873 50.0424 59.0905 49.8536 58.5204 49.476C57.9502 49.0985 57.5068 48.658 57.1267 48.1545C56.7466 47.5882 56.4299 47.0218 56.2398 46.3296C56.0498 45.6374 55.9231 44.9451 55.8597 44.19C55.2262 45.2598 54.7195 46.3296 54.2127 47.2735C53.7059 48.2175 53.3258 49.0355 53.009 49.7278H47.8778C48.7014 47.5252 49.4615 45.3227 50.2851 43.1202C51.1086 40.9177 51.8054 38.7152 52.5656 36.4497C52.6923 36.0092 52.6923 35.6946 52.4389 35.5687C52.3756 35.5058 52.2489 35.4429 52.1222 35.4429C51.9955 35.4429 51.8054 35.5058 51.6787 35.6316C50.7919 36.198 50.095 36.8273 49.5882 37.5195C49.0814 38.2747 48.5747 39.0298 48.1312 39.785C47.8778 39.722 47.6878 39.6591 47.4977 39.4703C47.3077 39.2815 47.1176 39.0927 47.0543 38.904C46.9276 38.7152 46.8643 38.4635 46.8643 38.2117C46.8643 37.96 46.8642 37.7712 46.9909 37.6454C47.3077 37.1419 47.8145 36.6385 48.3846 36.1351C48.9547 35.6946 49.5882 35.2541 50.2851 34.8765C50.9819 34.4989 51.6787 34.2472 52.4389 33.9955C53.1991 33.8067 53.8326 33.6808 54.4661 33.6808C55.543 33.6808 56.3032 33.9326 56.6199 34.4989C56.9366 35.0024 57 35.6946 56.7466 36.4497C56.3665 37.7712 55.8597 39.1557 55.2896 40.5401C54.7194 41.9875 54.2127 43.309 53.7692 44.5676C54.086 44.1271 54.5294 43.4348 54.9728 42.6168C55.4163 41.7987 55.9231 40.9177 56.4932 39.9738C57.0633 39.0298 57.6335 38.023 58.267 37.079C58.9004 36.1351 59.5973 35.2541 60.2941 34.436C60.9909 33.6808 61.7511 33.0516 62.5113 32.5481C63.1448 32.4223 63.7783 32.1706 64.4751 32.1706ZM106.982 43.1831C107.172 43.1831 107.362 43.1831 107.552 43.1202C107.679 43.0573 107.869 43.0573 108.059 42.9314C108.249 42.8685 108.439 42.7426 108.629 42.6797C108.882 42.1133 109.072 41.6099 109.262 41.0435C109.452 40.5401 109.579 40.0367 109.643 39.5962C109.706 39.1557 109.643 38.7781 109.579 38.4005C109.452 38.0859 109.262 37.8342 108.946 37.7083C108.819 37.6454 108.692 37.6454 108.566 37.6454C108.502 37.6454 108.376 37.6454 108.249 37.7083C107.995 37.7712 107.742 37.8971 107.425 38.1488C106.982 38.5264 106.602 39.0298 106.285 39.6591C105.968 40.2884 105.842 40.9177 105.778 41.4841C105.715 42.0504 105.842 42.4909 106.095 42.8685C106.348 43.0573 106.602 43.1831 106.982 43.1831ZM64.4751 31.5413C63.6516 31.5413 62.8914 31.793 62.0679 32.2964C61.2443 32.7998 60.4842 33.4921 59.724 34.3101C59.0271 35.1282 58.3303 36.0092 57.6335 37.0161C57.3167 37.4566 57 37.96 56.7466 38.4005C56.9366 37.8971 57.0633 37.3307 57.2534 36.8273C57.5068 35.8834 57.4434 35.0653 57 34.3731C56.5566 33.6808 55.6697 33.3033 54.3394 33.3033C53.6425 33.3033 52.8823 33.4291 52.1222 33.6808C51.362 33.9326 50.6018 34.2472 49.8416 34.6248C49.1448 34.9394 48.448 35.3799 47.8778 35.8834C47.2443 36.3868 46.7376 36.9532 46.3575 37.5195C46.1674 37.8342 46.1674 38.1488 46.1674 38.5264C46.2308 38.841 46.2941 39.0927 46.4208 39.4074C46.5475 39.722 46.8009 39.9738 47.0543 40.1625C47.371 40.4143 47.6878 40.5401 48.0045 40.603L48.448 40.666L48.638 40.2884C49.0814 39.5333 49.5882 38.7781 50.095 38.0859C50.5385 37.4566 51.1719 36.8273 51.9955 36.3868C51.9955 36.4497 51.9955 36.4497 51.9955 36.5127C51.1719 38.7152 50.4118 40.9806 49.6516 43.1202C48.8281 45.3227 48.0679 47.5252 47.2443 49.7278L46.9276 50.5458H47.8778H52.819H53.1991L53.3891 50.1683C53.7059 49.539 54.086 48.7209 54.5294 47.777C54.7828 47.3365 54.9728 46.833 55.2262 46.3925C55.2262 46.5184 55.2896 46.6442 55.3529 46.7701C55.6063 47.5252 55.9231 48.2175 56.3032 48.7838C56.7466 49.4131 57.2534 49.9165 57.8869 50.2941C58.5204 50.6717 59.3439 50.9234 60.2308 50.9234C60.2941 50.9234 60.3575 50.9234 60.4208 50.9234C61.371 50.9234 62.3213 50.6717 63.2715 50.1053C63.5249 49.9795 63.8416 49.7907 64.095 49.6019C64.1584 49.6648 64.1584 49.7907 64.2217 49.8536C64.4118 50.2312 64.7285 50.4829 65.0452 50.6717C65.362 50.8605 65.7421 50.9234 66.1222 50.9234C66.629 50.9234 67.1357 50.7976 67.7059 50.6088C68.2127 50.42 68.7194 50.1053 69.2262 49.7278C69.2262 49.7907 69.1629 49.7907 69.1629 49.8536C68.7828 50.7346 68.4027 51.5527 68.0226 52.1191C67.7059 52.6854 67.3891 53.063 67.0724 53.3147C66.8823 53.5035 66.6923 53.5664 66.5023 53.5664C66.1855 53.5664 66.1222 53.5035 66.1222 53.5035C66.0588 53.4406 65.9955 53.3147 65.9955 53.3147C65.9321 53.1889 65.9321 53.063 65.9321 52.8742C65.9321 52.5596 65.8688 52.3078 65.7421 52.0561L65.552 51.7415H65.1719C64.8552 51.7415 64.6018 51.8673 64.3484 52.0561C64.1584 52.182 63.905 52.4337 63.7783 52.6225C63.5882 52.8742 63.5249 53.1889 63.4615 53.4406C63.3982 53.8181 63.5249 54.1328 63.7149 54.5104C64.0317 55.0138 64.4118 55.3284 64.8552 55.5802C65.2986 55.8319 65.8688 55.8948 66.5656 55.8948C67.5792 55.8948 68.4661 55.706 69.2896 55.2655C70.1131 54.825 70.8099 54.3216 71.4434 53.6294C72.0769 52.9371 72.5837 52.182 73.0271 51.301C73.4072 50.6088 73.724 49.8536 74.0407 49.0355V49.0985C74.2941 49.539 74.6109 49.9165 74.9909 50.2312C75.4344 50.5458 75.9412 50.7346 76.448 50.7346C76.8914 50.7346 77.3982 50.6088 77.7783 50.357C78.1584 50.1053 78.4751 49.8536 78.7918 49.6019C79.1086 49.2873 79.4253 48.9726 79.6787 48.658C79.7421 48.595 79.7421 48.5321 79.8054 48.5321C80.1222 49.0355 80.5656 49.539 81.009 49.9165C81.7692 50.5458 82.5294 50.8605 83.2896 50.8605C84.0498 50.8605 84.6833 50.7346 85.3167 50.42C85.4434 50.357 85.5701 50.2941 85.6968 50.2312L85.5701 50.6088H86.457H90.1312H90.5746L90.7014 50.1683L92.2217 45.8262H93.6154L93.4253 46.5184C93.2353 47.1477 93.1086 47.714 93.1719 48.2804C93.2353 48.8467 93.362 49.2873 93.6154 49.7278C93.8688 50.1053 94.2489 50.42 94.7556 50.6717C95.1991 50.8605 95.7059 50.9863 96.276 50.9863C97.6063 50.9863 98.7466 50.6717 99.6968 49.9795C99.7602 49.9165 99.8235 49.8536 99.9502 49.7907C100.14 49.9795 100.33 50.1683 100.584 50.2941C101.154 50.6717 101.724 50.7975 102.357 50.7975C102.421 50.7975 102.421 50.7975 102.484 50.7975C103.244 50.7975 104.005 50.6088 104.701 50.2312C105.398 49.9165 106.032 49.476 106.665 48.9097C106.919 48.7209 107.109 48.4692 107.362 48.2175C107.362 49.0355 107.615 49.6019 108.059 50.0424C108.566 50.4829 109.262 50.7346 110.149 50.7346C110.783 50.7346 111.416 50.6717 111.986 50.5458C112.557 50.42 113.063 50.1683 113.57 49.9165C114.077 49.6019 114.52 49.2873 115.027 48.8467C115.471 48.4062 115.977 47.9028 116.484 47.3365C116.801 46.9589 116.864 46.4554 116.611 46.0149C116.421 45.7003 116.167 45.4486 115.851 45.2598L115.407 45.071L115.09 45.4486C115.027 45.5115 114.9 45.7003 114.584 46.0149C114.33 46.2667 114.014 46.5813 113.697 46.833C113.38 47.0847 113.063 47.3994 112.747 47.6511C112.493 47.8399 112.367 47.9657 112.24 48.0287L114.267 42.6797L114.584 41.8616H113.697H111.163C111.226 41.6099 111.29 41.4211 111.353 41.1694C111.48 40.666 111.606 40.1625 111.606 39.785C111.67 39.0298 111.606 38.2747 111.353 37.6454C111.1 36.9532 110.593 36.4497 110.023 36.1351C109.579 35.8834 109.009 35.7575 108.376 35.7575C108.186 35.7575 107.995 35.7575 107.805 35.7575C106.982 35.8204 106.095 36.198 105.081 36.8273C104.321 37.2678 103.688 37.8342 103.244 38.5264C102.801 39.1557 102.484 39.8479 102.357 40.5401C102.167 41.2323 102.167 41.9246 102.294 42.6168C102.421 43.309 102.674 43.8754 103.054 44.3788C103.118 44.4417 103.181 44.5046 103.181 44.5676C103.118 44.5676 103.054 44.5676 102.991 44.5676C102.674 44.5046 102.294 44.5046 101.977 44.5046C101.597 44.5046 101.281 44.5676 100.964 44.6305C100.584 44.6934 100.267 44.8822 100.077 45.1339C99.5068 45.7632 99.1267 46.3925 99.0633 47.0847C99.0633 47.2735 99.0633 47.5252 99.0633 47.714C98.6832 47.9657 98.4299 48.1545 98.2398 48.2175L100.71 40.2255L100.964 39.4074H100.14H96.3394H95.8959L95.7692 39.8479L94.629 43.4978H93.2986L94.4389 40.2884L94.7556 39.4703H93.8688H90.1946H89.9412L90.0045 39.2815L88.8009 39.5332C88.3575 39.6591 87.9774 39.6591 87.5973 39.6591C87.4072 39.6591 87.2172 39.6591 87.0271 39.5962C86.457 39.5333 85.9502 39.3445 85.5068 39.0298L85 38.7781L84.6833 39.2186L82.2127 42.428C82.1493 42.2392 82.1493 42.0504 82.086 41.8616C82.0226 41.4841 81.9593 41.1694 81.8959 40.7918C81.8326 40.4772 81.7692 40.1625 81.7692 39.9738L81.7059 39.4074H81.1357H77.7783H77.6516V39.3445H76.7647H73.5973H73.1538L72.9638 39.722L71.2534 43.9383C71.1267 44.1271 70.9366 44.5046 70.6199 45.0081C70.3032 45.5115 69.9864 46.0149 69.6063 46.4554C69.2262 46.9589 68.8461 47.3365 68.4661 47.714C68.4027 47.714 68.4027 47.777 68.3394 47.777L71.2534 40.0996L71.5701 39.2186H70.6833H67.2624H66.819L66.6923 39.6591L64.6652 45.3857V45.4486C64.4751 45.8262 64.2217 46.2037 63.9683 46.5813C63.7149 46.9589 63.4615 47.2735 63.2081 47.5252C62.9547 47.777 62.638 47.9657 62.3846 48.1545C62.1946 48.2804 61.9412 48.3433 61.7511 48.3433H61.6878C61.6878 48.3433 61.4977 48.3433 61.3077 48.0287C61.0543 47.714 60.8009 47.3365 60.5475 46.8959C60.2941 46.3925 60.0407 45.8262 59.8507 45.2598C59.6606 44.6305 59.4072 44.0012 59.2805 43.3719C59.0905 42.7426 58.9638 42.1133 58.9004 41.6099C58.8371 41.1694 58.7737 40.7918 58.7737 40.4143C59.3439 39.5333 59.914 38.6522 60.4842 37.8342C60.5475 37.7712 60.6109 37.6454 60.6742 37.5825L61.0543 38.0859C61.3077 38.4005 61.6244 38.5893 62.0679 38.7781C62.448 38.904 62.8281 39.0298 63.2715 39.0927C63.5249 39.1557 63.7783 39.1557 64.0317 39.1557C64.1584 39.1557 64.3484 39.1557 64.4751 39.1557C64.9185 39.0927 65.2986 39.0298 65.552 38.7781C66.1855 38.3376 66.7556 37.7712 67.1991 37.079C67.6425 36.3239 67.8959 35.4429 67.8326 34.5619C67.8326 33.4291 67.2624 32.7998 66.7557 32.4223C66.1222 31.9818 65.4887 31.793 64.7918 31.73C64.6651 31.5413 64.6018 31.5413 64.4751 31.5413ZM60.8642 37.1419C61.3077 36.5756 61.7511 36.0092 62.1312 35.5687C62.638 34.9394 63.2081 34.4989 63.6516 34.1843C63.9683 33.9955 64.2217 33.8696 64.4118 33.8067C64.4118 33.8696 64.4118 33.8696 64.3484 33.9326C64.2851 34.2472 64.1584 34.4989 63.9683 34.8136C63.7783 35.1282 63.5249 35.4429 63.2715 35.6946C63.0181 36.0092 62.7014 36.2609 62.3213 36.4497C62.0045 36.7014 61.6244 36.8273 61.2443 37.0161L60.8642 37.1419ZM106.982 42.5538C106.792 42.5538 106.728 42.4909 106.728 42.4909C106.538 42.2392 106.475 41.9246 106.538 41.547C106.602 41.0435 106.728 40.5401 106.982 39.9738C107.235 39.4074 107.552 39.0298 107.932 38.7152C108.186 38.4635 108.376 38.4005 108.439 38.4005C108.502 38.4005 108.566 38.4005 108.566 38.4005C108.629 38.4005 108.629 38.4005 108.692 38.4005C108.819 38.4635 108.946 38.5893 108.946 38.7152C109.009 38.9669 109.072 39.2815 109.009 39.6591C108.946 40.0367 108.882 40.4772 108.692 40.9806C108.502 41.4211 108.376 41.8616 108.186 42.3021C108.059 42.3651 107.932 42.428 107.869 42.428C107.742 42.4909 107.552 42.5538 107.489 42.5538C107.235 42.4909 107.109 42.5538 106.982 42.5538ZM75.4344 45.5115L77.2081 40.4143C77.3348 41.4211 77.5882 42.3651 77.7783 43.309C78.0317 44.3159 78.3484 45.2598 78.6651 46.2037C78.5385 46.3925 78.4118 46.5813 78.2851 46.7072C78.095 46.9589 77.905 47.2106 77.7783 47.3994C77.6516 47.5882 77.4615 47.777 77.3348 47.9028C77.2715 47.714 77.2081 47.5252 77.2081 47.3365C77.2081 47.0847 77.2081 46.7701 77.2081 46.5184C77.2081 46.2037 77.2715 45.952 77.2715 45.8262V45.0081L76.448 45.1969L75.4344 45.5115ZM86.0769 42.9314C86.7104 42.9314 87.2172 42.8056 87.6606 42.5538C88.1041 42.3021 88.4842 41.9875 88.8009 41.547C88.8642 41.4211 88.9276 41.3582 88.9909 41.2323L88.0407 44.0012H87.9774L87.6606 44.6305C87.4706 44.9451 87.2805 45.2598 87.0271 45.6374C86.7737 46.0149 86.5204 46.3296 86.267 46.6442C86.0136 46.9589 85.6968 47.2106 85.3801 47.3994C85.1267 47.5882 84.8733 47.6511 84.6833 47.6511C84.5566 47.6511 84.4932 47.6511 84.3032 47.4623C84.1131 47.2106 83.9231 46.9589 83.733 46.6442C83.543 46.2667 83.4163 45.8891 83.2262 45.5115C83.1629 45.2598 83.0995 45.071 83.0362 44.8822L84.8733 42.6168C85.3167 42.8056 85.6968 42.9314 86.0769 42.9314ZM105.652 45.3857C105.905 45.3857 106.158 45.3857 106.412 45.3227C106.158 45.7632 105.842 46.1408 105.525 46.5184C105.208 46.896 104.828 47.2106 104.448 47.4623C104.068 47.714 103.688 47.9028 103.244 47.9657C103.244 47.9657 103.244 47.9657 103.181 47.9657V47.9028C103.181 47.777 103.181 47.5882 103.244 47.3365C103.308 47.0847 103.371 46.833 103.498 46.5813C103.624 46.3925 103.751 46.2037 103.878 46.0149C104.005 45.8891 104.131 45.8262 104.195 45.8262L105.652 45.3857C105.588 45.3857 105.588 45.3857 105.652 45.3857Z" fill="white"/>
<path d="M11.1991 14.9284C11.9593 14.1732 12.7828 14.5508 13.6063 14.6767C13.543 13.6698 13.2262 12.7888 12.4027 12.2224C11.7059 11.719 10.819 11.4673 10.1855 11.1526C10.7556 10.4604 11.3891 9.70526 11.9593 8.95011C12.6561 7.94324 13.1629 6.87345 13.8597 5.92951C14.6832 4.67093 15.6968 4.48215 16.9638 5.23729C18.0407 5.92951 19.0543 5.6778 20.0678 5.30022C19.7511 4.23043 19.8145 4.04164 20.7647 3.97871C21.1448 3.97871 21.5249 4.04164 21.5882 3.47528C21.6516 3.03478 21.7783 2.59427 21.2081 2.34256C20.828 2.2167 20.638 1.83912 20.3212 1.58741C20.0678 1.39862 19.8145 1.20983 19.5611 1.20983C18.9276 1.14691 18.2941 1.27276 17.6606 1.14691C15.6968 0.706402 14.1764 1.08398 12.8461 2.78306C11.7059 4.1675 10.1855 5.23729 8.47509 5.92951C7.01807 6.5588 5.49771 7.12517 4.80088 8.69839C4.54749 9.26475 4.29409 9.89404 3.97735 10.3975C3.72396 10.7751 3.78731 11.0268 4.0407 11.3414C4.99093 12.4741 5.43436 13.7956 5.62441 15.3059C5.8778 17.005 6.51129 18.5153 8.28504 19.3963C8.66513 19.5851 8.98188 20.0886 9.23527 20.4661C9.99545 21.5988 10.1221 22.8574 10.0588 24.2419C9.9321 27.0737 12.1493 30.1572 14.6832 30.8494C16.457 31.2899 18.1674 31.9192 19.8145 32.6114C21.9683 33.4295 23.6787 34.751 24.5656 36.9535C24.9457 37.8975 25.2624 38.9043 25.7059 39.8483C25.8326 40.1 26.0859 40.2888 26.3393 40.4776C26.4027 40.4146 26.466 40.3517 26.5294 40.3517C26.466 39.9741 26.5294 39.6595 26.4027 39.2819C25.8959 37.457 25.5792 35.5691 25.6425 33.6812C25.7059 32.108 24.6289 31.227 23.4887 30.346C22.6018 29.6538 21.7149 29.9055 20.7647 30.2201C19.5611 30.6606 17.914 29.8426 17.4706 28.521C17.8507 28.7098 18.1674 28.8357 18.4208 28.9615C19.3077 29.5279 20.0678 30.0313 21.2081 29.465C21.7149 29.2133 22.6651 29.3391 23.2353 29.5908C23.9954 29.9055 24.6923 30.4718 25.3258 30.9753C26.8461 32.1709 28.3665 33.1149 30.457 33.1149C31.9774 33.1149 33.5611 33.4295 34.9547 34.2476C36.3484 35.0027 36.6651 34.8139 37.6154 33.5554C37.9955 33.0519 38.4389 32.4856 38.9457 32.0451C40.8461 30.4089 41.3529 28.3323 40.7828 25.941C40.0859 22.8574 40.1493 19.8368 41.543 16.9421C41.6063 16.8162 41.6063 16.6275 41.6697 16.4387C41.733 15.0542 40.5927 14.4879 39.7692 13.6698C39.4525 13.3551 39.2624 12.9146 38.8823 12.7259C38.3755 12.4112 37.8688 12.0966 37.2986 12.0336C36.8552 11.9707 36.5384 12.4741 36.5384 12.9776C36.5384 13.7956 36.285 14.4879 35.6516 15.1172C35.3982 15.3059 35.3348 15.7464 35.2715 16.0611C35.1448 17.005 35.7149 17.6343 36.285 18.2636C36.6651 18.6412 37.1719 19.1446 37.2353 19.5851C37.362 20.6549 37.4253 21.7876 37.1086 22.7945C36.7285 24.116 35.9683 25.3746 35.3348 26.6332C35.1448 27.0107 35.0181 27.3883 34.7647 27.703C34.3846 28.1435 33.8778 27.9547 33.7511 27.4513C33.3077 25.5634 31.7873 24.4307 29.8869 24.4307C28.8733 24.4307 28.7466 24.3048 28.6832 23.3609C28.4298 20.592 25.5158 19.5222 23.4887 20.3403C21.5882 21.0954 20.0045 20.2144 18.7375 18.83C19.8778 18.6412 20.3212 19.9627 21.3348 19.8998C21.1448 19.4593 20.9547 19.0817 20.8914 18.7041C20.828 18.3895 20.9547 18.0748 21.0181 17.7602C21.3348 17.8231 21.6516 17.8231 21.9683 17.949C22.3484 18.1378 22.6651 18.5153 23.1086 18.767C23.9321 19.2705 24.3122 19.1446 24.8823 18.3895C25.0724 18.1378 25.1991 17.886 25.3258 17.6972C25.7059 17.068 26.086 16.4387 26.9095 16.3128C27.3529 16.2499 27.543 15.8723 27.3529 15.4318C26.8461 14.362 27.1629 13.4181 27.6697 12.4741C28.2398 11.4673 28.2398 10.4604 27.6697 9.45354C27.2896 8.76132 26.7828 8.00617 26.2126 7.50274C24.3755 5.92951 22.3484 5.48901 20.1945 6.81052C18.8009 7.69153 18.4841 9.1389 18.1674 10.5863C17.7873 12.1595 17.3439 13.7327 16.7104 15.243C16.2036 16.3757 15.1267 16.4387 14.1764 15.7464C13.4163 15.1801 12.5927 14.9284 11.6425 15.1172C11.3891 14.9913 11.3258 14.9284 11.1991 14.9284Z" fill="white"/>
<path d="M11.1991 14.9284C11.3258 14.9284 11.4525 14.9913 11.5158 14.9284C12.4661 14.7396 13.2896 15.0542 14.0498 15.5577C15 16.2499 16.1403 16.1869 16.5837 15.0542C17.2172 13.5439 17.6606 11.9707 18.0407 10.3975C18.3575 8.95011 18.6742 7.50274 20.0679 6.62173C22.2217 5.23729 24.3122 5.6778 26.086 7.31395C26.6561 7.81738 27.1629 8.57253 27.543 9.26475C28.1131 10.2087 28.1131 11.2785 27.543 12.2853C27.0362 13.2293 26.7195 14.1732 27.2262 15.243C27.4163 15.6835 27.2262 16.0611 26.7828 16.124C25.8959 16.2499 25.5792 16.8792 25.1991 17.5085C25.0724 17.7602 24.9457 18.0119 24.7557 18.2007C24.1855 18.9558 23.8054 19.0817 22.9819 18.5783C22.6018 18.3265 22.2851 18.0119 21.8416 17.7602C21.5882 17.6343 21.2081 17.6343 20.8914 17.5714C20.828 17.886 20.7014 18.2007 20.7647 18.5153C20.8281 18.9558 21.0814 19.3334 21.2081 19.711C20.1312 19.7739 19.7511 18.3895 18.6109 18.6412C19.8778 20.0256 21.4615 20.9066 23.362 20.1515C25.3891 19.3334 28.3032 20.4032 28.5566 23.1721C28.6199 24.116 28.7466 24.2419 29.7602 24.2419C31.6606 24.2419 33.181 25.4375 33.6244 27.2625C33.7511 27.7659 34.3213 27.9547 34.638 27.5142C34.8914 27.1995 35.0814 26.822 35.2081 26.4444C35.8416 25.1858 36.6018 23.9272 36.9819 22.6057C37.2986 21.5989 37.1719 20.4661 37.1086 19.3963C37.0452 18.8929 36.5385 18.4524 36.1584 18.0748C35.5249 17.4455 34.9547 16.8162 35.1448 15.8723C35.2081 15.5577 35.2715 15.1172 35.5249 14.9284C36.1584 14.362 36.4118 13.6069 36.4118 12.7888C36.4118 12.2224 36.7285 11.7819 37.1719 11.8448C37.7421 11.9078 38.2489 12.2224 38.7556 12.5371C39.1357 12.7888 39.3258 13.1664 39.6425 13.481C40.4661 14.2991 41.6063 14.8654 41.543 16.2499C41.543 16.4387 41.543 16.6275 41.4163 16.7533C40.0226 19.648 39.9593 22.6686 40.6561 25.7522C41.2262 28.1435 40.7195 30.2201 38.819 31.8563C38.3122 32.2968 37.8688 32.8002 37.4887 33.3666C36.5385 34.6252 36.1584 34.814 34.8281 34.0588C33.4344 33.2407 31.8507 32.9261 30.3303 32.9261C28.3032 32.9261 26.7195 31.9821 25.1991 30.7865C24.5656 30.2831 23.8688 29.7167 23.1086 29.4021C22.4751 29.1503 21.5882 29.0245 21.0814 29.2762C19.9412 29.8426 19.1176 29.4021 18.2941 28.7728C18.0407 28.584 17.7873 28.521 17.3439 28.3323C17.7873 29.6538 19.4344 30.4718 20.638 30.0313C21.5882 29.6538 22.5385 29.465 23.362 30.1572C24.4389 31.0382 25.5158 31.8563 25.5158 33.4924C25.4525 35.3803 25.7692 37.2682 26.276 39.0931C26.3394 39.4078 26.3394 39.7853 26.4027 40.1629C26.3394 40.2259 26.276 40.2888 26.2127 40.2888C26.0226 40.1 25.7059 39.9112 25.5792 39.6595C25.1991 38.7156 24.819 37.7087 24.4389 36.7648C23.552 34.5622 21.7783 33.2407 19.6878 32.4226C17.9774 31.7304 16.267 31.1011 14.5566 30.6606C11.9593 29.9684 9.80542 26.8849 9.93212 24.0531C9.99547 22.7316 9.86877 21.473 9.10859 20.2773C8.8552 19.8998 8.53846 19.3963 8.15837 19.2075C6.44796 18.3895 5.75113 16.8162 5.49773 15.1172C5.30769 13.6069 4.86425 12.2853 3.91402 11.1526C3.78732 11.0268 3.72398 10.7751 3.97737 10.3975C4.29411 9.83111 4.54751 9.26475 4.8009 8.69839C5.49773 7.12516 7.01809 6.5588 8.47511 5.92951C10.1855 5.17436 11.7059 4.1675 12.8461 2.78306C14.1765 1.1469 15.6968 0.7064 17.6606 1.1469C18.2941 1.27276 18.9276 1.1469 19.5611 1.20983C19.8145 1.20983 20.1312 1.39862 20.3213 1.58741C20.638 1.83912 20.828 2.2167 21.1448 2.34256C21.7149 2.59427 21.5882 3.03478 21.5249 3.47528C21.4615 3.97871 21.0814 3.91578 20.7014 3.97871C19.7511 4.04164 19.6878 4.1675 20.0045 5.30022C18.9276 5.6778 17.9774 5.92951 16.9004 5.23729C15.6335 4.41921 14.6833 4.67093 13.7964 5.92951C13.0995 6.93638 12.5928 8.00617 11.8959 8.95011C11.3258 9.76818 10.6923 10.4604 10.1222 11.1526C10.7557 11.4673 11.6425 11.719 12.3394 12.2224C13.0995 12.7888 13.4163 13.6698 13.543 14.6767C12.7828 14.5508 11.8959 14.1732 11.1991 14.9284Z" fill="#3F4C5A"/>
<path d="M29.4434 38.4639C29.5067 38.9044 29.5701 39.2191 29.6334 39.5337C29.6334 39.8484 29.6968 40.2259 29.6334 40.5406C29.5701 41.3587 29.0633 42.0509 28.3031 42.2397C27.0361 42.5543 25.6425 42.1767 25.009 41.044C24.4388 40.1001 24.0588 39.0303 23.6787 37.9605C23.1719 36.639 22.4117 35.5063 21.2714 34.7511C19.561 33.6184 17.5972 33.1149 15.6968 32.4857C13.9864 31.9193 12.276 31.3529 10.9456 30.1573C10.3755 29.5909 9.93206 28.8987 9.23523 28.1436C9.42527 29.6539 9.61532 30.9754 9.80536 32.2969C10.6922 37.2053 12.9728 41.2328 17.4072 43.8129C19.6244 45.0715 22.0316 45.9525 24.6289 45.8896C25.5791 45.8896 26.7194 45.7008 27.4162 45.0715C27.0361 45.1973 26.656 45.2603 26.3393 45.3232C24.4388 45.6378 22.7284 45.0085 21.0814 44.0646C18.4207 42.4914 16.3303 40.2889 14.2398 37.7717C14.4931 37.8976 14.5565 37.8976 14.6198 37.9605C14.7465 38.0863 14.8732 38.2122 14.9999 38.3381C16.647 39.7225 18.1674 41.2328 19.9411 42.4285C21.9683 43.8129 24.1855 44.631 26.8461 44.2534C29.6334 43.75 30.9637 41.1069 29.4434 38.4639Z" fill="#92B676"/>
<path d="M7.58821 22.2283C3.40722 28.647 3.72396 34.9399 8.2217 41.107C2.96378 35.5692 2.77373 29.4022 5.94115 22.7317C5.62441 22.8576 5.30767 22.9834 5.05428 23.1093C2.77373 24.5566 1.76016 26.7592 1.25337 29.2763C0.49319 32.9891 1.31672 36.3244 3.53391 39.345C5.75111 42.3656 8.53844 44.6939 12.0226 46.1413C14.4932 47.1482 17.0271 47.5258 19.6878 47.2111C19.8145 47.2111 20.0045 47.0852 20.1312 47.0223C18.8642 46.5189 17.5973 46.1413 16.457 45.575C12.276 43.4983 9.99545 39.7855 8.72848 35.5692C8.095 33.4926 7.77826 31.353 7.58821 29.1505C7.46152 26.885 7.58821 24.5566 7.58821 22.2283Z" fill="#92B676"/>
<path d="M29.5701 44.7566C28.6832 46.5186 27.1628 47.2108 25.5791 47.2738C23.2986 47.2738 21.4615 48.2806 19.6244 49.3504C18.294 50.1685 16.837 50.3573 15.38 49.8538C14.3664 49.5392 13.4796 48.9099 12.466 48.4694C12.2126 48.3435 11.9592 48.2806 11.7058 48.2177C11.7058 48.3435 11.6425 48.4065 11.6425 48.5323C16.2669 52.3081 21.1447 53.6296 26.656 50.1685C25.2624 51.6159 23.552 52.4969 21.5248 52.7486C19.561 53.0632 17.6606 52.6227 15.8235 52.0564C18.294 53.7554 21.018 54.5735 23.9954 54.196C25.199 54.0701 26.3393 53.6925 27.2895 52.9374C28.6198 51.9305 29.19 50.4831 29.5701 48.9728C29.8234 47.6513 30.0768 46.2669 29.5701 44.7566Z" fill="#92B676"/>
<path d="M29.4434 38.464C30.9637 41.1071 29.5701 43.7501 26.8461 44.1277C24.1855 44.5052 21.9683 43.7501 19.9411 42.3027C18.1674 41.1071 16.647 39.5968 14.9999 38.2123C14.8732 38.0865 14.7465 37.9606 14.6198 37.8348C14.5565 37.7718 14.4931 37.7718 14.2398 37.646C16.3303 40.1631 18.4208 42.3656 21.0814 43.9389C22.7284 44.8828 24.4389 45.5121 26.3393 45.1975C26.656 45.1345 27.0361 45.0087 27.4162 44.9457C26.7194 45.575 25.5791 45.7638 24.6289 45.7638C22.0316 45.8267 19.6244 44.9457 17.4072 43.6872C12.9728 41.1071 10.6922 37.0796 9.80537 32.1711C9.55197 30.8496 9.42527 29.5281 9.23523 28.0178C9.86871 28.773 10.3122 29.5281 10.9456 30.0316C12.276 31.2272 13.9864 31.7936 15.6968 32.3599C17.5972 32.9892 19.561 33.4927 21.2714 34.6254C22.475 35.4435 23.2352 36.5132 23.6787 37.8348C24.0588 38.9045 24.4389 39.9114 25.009 40.9183C25.6425 41.9881 27.0995 42.4286 28.3031 42.1139C29.0633 41.9251 29.5701 41.2959 29.6334 40.4148C29.6334 40.1002 29.6334 39.7226 29.6334 39.408C29.5701 39.2192 29.5067 38.9045 29.4434 38.464Z" fill="#92B676"/>
<path d="M7.58855 22.228C7.58855 24.6193 7.46186 26.9477 7.6519 29.2132C7.84195 31.3527 8.15869 33.5553 8.79217 35.6319C10.1225 39.9111 12.3397 43.561 16.5207 45.6376C17.661 46.204 18.9279 46.5816 20.1949 47.085C20.0048 47.1479 19.8781 47.2109 19.7515 47.2738C17.0908 47.5884 14.4935 47.2109 12.0863 46.204C8.60213 44.7566 5.75145 42.4283 3.5976 39.4077C1.38041 36.3871 0.55688 33.0518 1.31706 29.339C1.82385 26.8218 2.90077 24.6193 5.11797 23.172C5.37136 22.9832 5.62475 22.9202 6.00484 22.7944C2.77408 29.4019 3.02747 35.569 8.28539 41.1697C3.7243 34.8768 3.40756 28.6468 7.58855 22.228Z" fill="#92B676"/>
<path d="M29.5701 44.7566C30.0768 46.2669 29.8868 47.6513 29.5701 48.9099C29.2533 50.4202 28.6198 51.8676 27.2895 52.8744C26.2759 53.6296 25.199 54.0072 23.9954 54.133C21.018 54.5106 18.294 53.6925 15.8235 51.9934C17.6606 52.5598 19.561 53.0003 21.5248 52.6856C23.552 52.371 25.199 51.5529 26.656 50.1056C21.1447 53.5667 16.2035 52.2451 11.6425 48.4694C11.6425 48.3435 11.7058 48.2806 11.7058 48.1548C11.9592 48.2177 12.2126 48.2806 12.466 48.4065C13.4162 48.847 14.3664 49.4133 15.38 49.7909C16.837 50.2943 18.294 50.1056 19.6244 49.2875C21.4615 48.1548 23.2986 47.2108 25.5791 47.2108C27.1628 47.2108 28.6832 46.5186 29.5701 44.7566Z" fill="#92B676"/>
</svg>
